<svg width="33" height="32" viewBox="0 0 33 32" fill="none" xmlns="http://www.w3.org/2000/svg">
<path d="M16.667 10V6H12.667" stroke="black" stroke-width="2" stroke-linecap="round" stroke-linejoin="round"/>
<path d="M12.667 22L8.66699 26V12C8.66699 11.4696 8.87771 10.9609 9.25278 10.5858C9.62785 10.2107 10.1366 10 10.667 10H22.667C23.1974 10 23.7061 10.2107 24.0812 10.5858C24.4563 10.9609 24.667 11.4696 24.667 12V20C24.667 20.5304 24.4563 21.0391 24.0812 21.4142C23.7061 21.7893 23.1974 22 22.667 22H12.667Z" stroke="black" stroke-width="2" stroke-linecap="round" stroke-linejoin="round"/>
<path d="M6.66699 16H8.66699" stroke="black" stroke-width="2" stroke-linecap="round" stroke-linejoin="round"/>
<path d="M13.667 15V17" stroke="black" stroke-width="2" stroke-linecap="round" stroke-linejoin="round"/>
<path d="M19.667 15V17" stroke="black" stroke-width="2" stroke-linecap="round" stroke-linejoin="round"/>
<path d="M24.668 16H26.668" stroke="black" stroke-width="2" stroke-linecap="round" stroke-linejoin="round"/>
</svg>
