<svg width="32" height="32" viewBox="0 0 32 32" fill="none" xmlns="http://www.w3.org/2000/svg">
<path d="M13 10H18M13 10V12.5H18V10M13 10V8.5C13 7 14.5 6 16 6H21.5C21.5 6 18 7 18 9V10M10.5 13.5C10.5 13.2348 10.6054 12.9804 10.7929 12.7929C10.9804 12.6054 11.2348 12.5 11.5 12.5H19.5C19.7652 12.5 20.0196 12.6054 20.2071 12.7929C20.3946 12.9804 20.5 13.2348 20.5 13.5V23C20.5 23 20.5 26 17.5 26H13.5C10.5 26 10.5 23 10.5 23V13.5Z" stroke="black" stroke-width="2" stroke-linecap="round" stroke-linejoin="round"/>
</svg>
