<svg width="20" height="21" viewBox="0 0 20 21" fill="none" xmlns="http://www.w3.org/2000/svg">
<path d="M9.99925 12.5C11.1038 12.5 11.9992 11.6046 11.9992 10.5C11.9992 9.39543 11.1038 8.5 9.99925 8.5C8.89468 8.5 7.99925 9.39543 7.99925 10.5C7.99925 11.6046 8.89468 12.5 9.99925 12.5Z" fill="#C8C8C8"/>
<path fill-rule="evenodd" clip-rule="evenodd" d="M0.457031 10.5C1.73128 6.44291 5.52157 3.5 9.99921 3.5C14.4768 3.5 18.2671 6.44288 19.5414 10.5C18.2671 14.5571 14.4768 17.5 9.99919 17.5C5.52157 17.5 1.7313 14.5571 0.457031 10.5ZM13.9992 10.5C13.9992 12.7091 12.2084 14.5 9.99925 14.5C7.79011 14.5 5.99926 12.7091 5.99926 10.5C5.99926 8.29086 7.79011 6.5 9.99925 6.5C12.2084 6.5 13.9992 8.29086 13.9992 10.5Z" fill="#C8C8C8"/>
</svg>
