<svg width="20" height="20" viewBox="0 0 20 20" fill="none" xmlns="http://www.w3.org/2000/svg">
<path d="M7.50065 12.4998C7.33583 12.4998 7.17472 12.5487 7.03767 12.6403C6.90063 12.7318 6.79382 12.862 6.73075 13.0143C6.66768 13.1665 6.65118 13.3341 6.68333 13.4957C6.71548 13.6574 6.79485 13.8059 6.9114 13.9224C7.02794 14.039 7.17642 14.1183 7.33808 14.1505C7.49973 14.1826 7.66728 14.1661 7.81955 14.1031C7.97183 14.04 8.10197 13.9332 8.19354 13.7961C8.28511 13.6591 8.33398 13.498 8.33398 13.3332C8.33398 13.1122 8.24619 12.9002 8.08991 12.7439C7.93363 12.5876 7.72166 12.4998 7.50065 12.4998ZM1.66732 11.6665C1.4463 11.6665 1.23434 11.7543 1.07806 11.9106C0.921782 12.0669 0.833984 12.2788 0.833984 12.4998V14.1665C0.833984 14.3875 0.921782 14.5995 1.07806 14.7558C1.23434 14.912 1.4463 14.9998 1.66732 14.9998C1.88833 14.9998 2.10029 14.912 2.25657 14.7558C2.41285 14.5995 2.50065 14.3875 2.50065 14.1665V12.4998C2.50065 12.2788 2.41285 12.0669 2.25657 11.9106C2.10029 11.7543 1.88833 11.6665 1.66732 11.6665ZM18.334 11.6665C18.113 11.6665 17.901 11.7543 17.7447 11.9106C17.5884 12.0669 17.5006 12.2788 17.5006 12.4998V14.1665C17.5006 14.3875 17.5884 14.5995 17.7447 14.7558C17.901 14.912 18.113 14.9998 18.334 14.9998C18.555 14.9998 18.767 14.912 18.9232 14.7558C19.0795 14.5995 19.1673 14.3875 19.1673 14.1665V12.4998C19.1673 12.2788 19.0795 12.0669 18.9232 11.9106C18.767 11.7543 18.555 11.6665 18.334 11.6665ZM14.1673 5.83317H10.834V4.7665C11.0859 4.62108 11.2953 4.41226 11.4415 4.16081C11.5877 3.90936 11.6656 3.62403 11.6673 3.33317C11.6673 2.89114 11.4917 2.46722 11.1792 2.15466C10.8666 1.8421 10.4427 1.6665 10.0007 1.6665C9.55862 1.6665 9.1347 1.8421 8.82214 2.15466C8.50958 2.46722 8.33398 2.89114 8.33398 3.33317C8.33574 3.62403 8.41358 3.90936 8.55977 4.16081C8.70597 4.41226 8.91542 4.62108 9.16732 4.7665V5.83317H5.83398C5.17094 5.83317 4.53506 6.09656 4.06622 6.5654C3.59738 7.03425 3.33398 7.67013 3.33398 8.33317V15.8332C3.33398 16.4962 3.59738 17.1321 4.06622 17.6009C4.53506 18.0698 5.17094 18.3332 5.83398 18.3332H14.1673C14.8304 18.3332 15.4662 18.0698 15.9351 17.6009C16.4039 17.1321 16.6673 16.4962 16.6673 15.8332V8.33317C16.6673 7.67013 16.4039 7.03425 15.9351 6.5654C15.4662 6.09656 14.8304 5.83317 14.1673 5.83317ZM11.434 7.49984L11.0173 9.1665H8.98398L8.56732 7.49984H11.434ZM15.0006 15.8332C15.0006 16.0542 14.9129 16.2661 14.7566 16.4224C14.6003 16.5787 14.3883 16.6665 14.1673 16.6665H5.83398C5.61297 16.6665 5.40101 16.5787 5.24473 16.4224C5.08845 16.2661 5.00065 16.0542 5.00065 15.8332V8.33317C5.00065 8.11216 5.08845 7.9002 5.24473 7.74392C5.40101 7.58764 5.61297 7.49984 5.83398 7.49984H6.85065L7.50065 10.1998C7.54628 10.3847 7.65386 10.5484 7.80548 10.6637C7.9571 10.7789 8.14362 10.8387 8.33398 10.8332H11.6673C11.8577 10.8387 12.0442 10.7789 12.1958 10.6637C12.3474 10.5484 12.455 10.3847 12.5007 10.1998L13.1507 7.49984H14.1673C14.3883 7.49984 14.6003 7.58764 14.7566 7.74392C14.9129 7.9002 15.0006 8.11216 15.0006 8.33317V15.8332ZM12.5007 12.4998C12.3358 12.4998 12.1747 12.5487 12.0377 12.6403C11.9006 12.7318 11.7938 12.862 11.7308 13.0143C11.6677 13.1665 11.6512 13.3341 11.6833 13.4957C11.7155 13.6574 11.7949 13.8059 11.9114 13.9224C12.0279 14.039 12.1764 14.1183 12.3381 14.1505C12.4997 14.1826 12.6673 14.1661 12.8196 14.1031C12.9718 14.04 13.102 13.9332 13.1935 13.7961C13.2851 13.6591 13.334 13.498 13.334 13.3332C13.334 13.1122 13.2462 12.9002 13.0899 12.7439C12.9336 12.5876 12.7217 12.4998 12.5007 12.4998Z" fill="black"/>
</svg>
