<svg width="20" height="20" viewBox="0 0 20 20" fill="none" xmlns="http://www.w3.org/2000/svg">
<path d="M5.83333 13.5832C7.66667 13.5832 9.16667 12.0582 9.16667 10.2082C9.16667 9.2415 8.69167 8.32484 7.74167 7.54984C6.79167 6.77484 6.075 5.62484 5.83333 4.4165C5.59167 5.62484 4.88333 6.78317 3.925 7.54984C2.96667 8.3165 2.5 9.24984 2.5 10.2082C2.5 12.0582 4 13.5832 5.83333 13.5832Z" stroke="#838383" stroke-width="2" stroke-linecap="round" stroke-linejoin="round"/>
<path d="M10.4669 5.49993C11.04 4.58421 11.4463 3.57414 11.6669 2.5166C12.0835 4.59993 13.3335 6.59994 15.0002 7.93327C16.6669 9.2666 17.5002 10.8499 17.5002 12.5166C17.505 13.6685 17.1676 14.7959 16.5309 15.7558C15.8941 16.7158 14.9867 17.4651 13.9236 17.9087C12.8606 18.3523 11.6897 18.4703 10.5595 18.2477C9.4293 18.0251 8.39064 17.4719 7.5752 16.6583" stroke="#838383" stroke-width="2" stroke-linecap="round" stroke-linejoin="round"/>
</svg>
